<svg width="311" height="355" viewBox="0 0 311 355" fill="none" xmlns="http://www.w3.org/2000/svg">
<g filter="url(#filter0_d_0_9)">
<path fill-rule="evenodd" clip-rule="evenodd" d="M209.5 411C96.236 411 4 318.764 4 205.5C4 92.236 96.236 0 209.5 0C322.764 0 415 92.236 415 205.5C415 271.362 383.812 330.113 335.438 367.754C337.781 365.394 339.295 362.201 339.521 358.578C340 354.751 340 351.881 340 348.533V343.749C339.879 337.683 339.35 331.725 338.44 325.901C367.927 294.343 386 251.99 386 205.5C386 108.186 306.814 29 209.5 29C112.186 29 33 108.186 33 205.5C33 252.377 51.3746 295.047 81.2988 326.686C80.282 333.801 79.8485 341.1 80.0469 348.533C80.0469 351.403 80.0469 354.751 80.5256 358.578C81.0044 366.71 87.7067 372.451 95.8452 371.972C103.984 371.494 109.728 364.797 109.25 356.665C108.892 354.163 108.802 352.196 108.779 350.363C137.361 370.298 172.091 382 209.5 382C247.357 382 282.471 370.016 311.247 349.643C311.207 350.468 311.131 351.336 311.053 352.232C310.928 353.664 310.797 355.164 310.797 356.665C310.318 364.318 316.063 371.494 324.202 371.972H325.159C327.791 371.972 330.253 371.294 332.371 370.094C298.07 395.773 255.521 411 209.5 411ZM311.247 349.643C321.103 342.665 330.215 334.703 338.44 325.901C328.506 262.367 273.17 214.712 207.39 216.027C142.589 217.313 90.0983 265.111 81.2988 326.686C89.6155 335.48 98.8243 343.421 108.779 350.363C108.771 349.743 108.771 349.138 108.771 348.533V344.227C109.728 288.259 156.166 243.771 212.178 245.207C268.19 246.163 312.712 292.564 311.276 348.533C311.276 348.892 311.265 349.263 311.247 349.643ZM332.371 370.094C333.401 369.324 334.423 368.543 335.438 367.754C334.531 368.667 333.5 369.455 332.371 370.094ZM151 142.5C151 174.339 176.661 200 208.5 200C240.339 200 266 174.339 266 142.5C266 110.661 240.339 85 208.5 85C176.661 85 151 110.661 151 142.5ZM209.5 114C193.057 114 180 127.057 180 143.5C180 159.943 193.057 173 209.5 173C225.943 173 239 159.943 239 143.5C239 127.057 225.943 114 209.5 114Z" fill="#F9FAFF"/>
<rect x="4.5" y="0.5" width="410" height="410" stroke="black" shape-rendering="crispEdges"/>
</g>
<defs>
<filter id="filter0_d_0_9" x="0" y="0" width="419" height="419" filterUnits="userSpaceOnUse" color-interpolation-filters="sRGB">
<feFlood flood-opacity="0" result="BackgroundImageFix"/>
<feColorMatrix in="SourceAlpha" type="matrix" values="0 0 0 0 0 0 0 0 0 0 0 0 0 0 0 0 0 0 127 0" result="hardAlpha"/>
<feOffset dy="4"/>
<feGaussianBlur stdDeviation="2"/>
<feComposite in2="hardAlpha" operator="out"/>
<feColorMatrix type="matrix" values="0 0 0 0 0 0 0 0 0 0 0 0 0 0 0 0 0 0 0.25 0"/>
<feBlend mode="normal" in2="BackgroundImageFix" result="effect1_dropShadow_0_9"/>
<feBlend mode="normal" in="SourceGraphic" in2="effect1_dropShadow_0_9" result="shape"/>
</filter>
</defs>
</svg>
